<svg enable-background="new 0 0 60 60" version="1.1" viewBox="0 0 60 60" xml:space="preserve" xmlns="http://www.w3.org/2000/svg">
  <path d="M60,30c0,16.568-13.432,30-30,30S0,46.568,0,30S13.432,0,30,0S60,13.432,60,30" fill="#6f0"/>
  <path d="m0.196 33.661c1.411 0.017 2.82 6e-3 4.231-0.01 0.558-6e-3 1.119-0.027 1.664-0.179 0.193-0.054 0.353-0.144 0.497-0.328 0.162-0.206 0.221-0.434 0.27-0.678 0.414-2.072 0.788-6.631 0.805-6.802 0.116 0.371 0.189 0.744 0.272 1.114 0.343 1.544 2.077 11.398 2.37 12.347 0.056 0.18 0.116 0.386 0.236 0.532 0.083 0.102 0.211 0.176 0.34 0.16 0.294-0.035 0.599-0.538 0.648-0.781 0.057-0.274 0.035-0.592 0.056-0.872 0.208-2.748 0.53-5.496 0.898-8.227 0.05-0.365 0.307-2.922 0.349-3.288 0.062 0.051 0.083 0.106 0.092 0.163 0.078 0.497 0.138 0.999 0.233 1.492 0.598 3.123 1.128 6.257 1.588 9.409 0.06 0.408 0.161 0.814 0.291 1.203 0.123 0.369 0.45 0.425 0.728 0.175 0.192-0.173 0.438-0.403 0.443-0.65 0.032-1.25 0.063-2.5 0.097-3.75 0.052-1.886 0.096-3.771 0.161-5.657 0.062-1.753 0.139-3.506 0.225-5.258 0.069-1.391 0.035-2.409 0.118-3.798 3e-3 -0.061 0.265 2.446 0.431 3.937 0.254 2.286 0.503 4.572 0.793 6.853 0.239 1.866 1.771 13.927 2.053 15.92 0.123 0.865 0.304 1.722 0.478 2.577 0.119 0.59 0.562 1.207 1.298 0.833 0.336-0.171 0.474-0.479 0.489-0.834 0.031-0.647 0.591-20.18 0.649-21.978 0.083-2.62 0.137-3.049 0.19-5.669 0.025-1.239 0.017-2.478 0.025-3.719 1e-3 -0.108 0.014-0.216 0.02-0.323 0.073 0.626 0.11 1.25 0.138 1.873 0.076 1.743 0.9 14.531 1.056 16.322 0.16 1.845 0.322 3.689 0.488 5.534 0.022 0.25 0.062 0.501 0.126 0.741 0.16 0.607 1.092 0.235 1.149-0.251 0.084-0.718 0.184-1.434 0.252-2.152 0.096-1.015 1.893-15.509 2.126-18.164 0.021-0.231 0.048-0.462 0.073-0.694 0.06 0.058 0.081 0.115 0.085 0.175 0.081 1.06 0.363 7.148 0.426 9.132 0.047 1.469 0.322 7.273 0.426 8.704 0.073 0.995 0.169 1.987 0.26 2.98 0.135 1.45 0.272 2.902 0.408 4.352 0.035 0.371 0.062 0.743 0.106 1.112 0.038 0.335 0.236 0.531 0.487 0.507 0.243-0.022 0.396-0.226 0.409-0.553 6e-3 -0.164 1.312-11.955 1.625-13.942 0.012-0.065 0.042-0.128 0.08-0.251 0.036 0.171 0.06 0.276 0.079 0.384 0.186 1.021 0.365 2.482 0.555 3.503 0.033 0.181 0.09 0.357 0.159 0.527 0.219 0.545 0.712 0.231 0.816-0.188 0.156-0.641 0.348-1.283 0.465-1.933 0.331-1.829 1.294-9.391 1.559-11.541 0.053-0.417 0.121-0.832 0.184-1.248 0.054 0.063 0.073 0.125 0.081 0.188 0.108 1.023 1.153 13.521 1.303 15.895 0.014 0.22 0.028 0.439 0.065 0.654 0.041 0.247 0.204 0.394 0.411 0.407 0.258 0.014 0.475-0.188 0.505-0.493 0.031-0.293 0.051-0.589 0.064-0.885 0.102-2.183 0.324-3.253 0.621-5.412 0.056-0.405 0.123-0.81 0.186-1.214 0.065 0.185 0.084 0.367 0.097 0.55 0.03 0.427 0.538 4.861 0.603 5.416 0.032 0.26 0.232 0.452 0.468 0.478 0.227 0.022 0.565-0.452 0.614-0.606 0.144-0.467 0.29-0.934 0.437-1.399 0.273-0.871 0.552-1.738 0.82-2.609 0.07-0.233 0.12-0.476 0.194-0.774 0.031 0.112 0.046 0.161 0.058 0.211 0.182 0.74 0.363 1.481 0.543 2.222 0.028 0.117 0.045 0.237 0.08 0.352 0.149 0.491 0.543 0.372 0.838-0.021 0.17-0.227 0.318-0.479 0.438-0.742 0.359-0.782 0.699-1.576 1.049-2.363 0.026-0.06 0.069-0.112 0.111-0.18 0.033 0.425 0.041 0.821 0.101 1.208 0.074 0.481 0.521 0.674 0.89 0.396 0.204-0.154 0.422-0.255 0.659-0.296 0.527-0.089 1.057-0.161 1.607-0.242 0.061 0.182 0.122 0.365 0.186 0.547 0.067 0.195 0.14 0.387 0.204 0.583 0.34 1.043 1.534-0.344 1.684-0.871 0.022-0.081 0.073-0.152 0.112-0.229 0.282 0.017 0.56-0.013 0.815 0.058 0.38 0.104 0.762 0.159 1.147 0.197 0.396 0.038 0.794 0.059 1.191 0.08 0.432 0.023 0.738-0.201 0.966-0.595 0.143-0.25 0.31-0.482 0.457-0.729 0.142-0.237 0.272-0.484 0.407-0.727 0.039-0.07 0.075-0.142 0.129-0.242 0.039 0.104 0.068 0.172 0.093 0.243 0.218 0.636 0.423 1.278 0.657 1.906 0.12 0.322 0.293 0.621 0.442 0.929 0.091 0.183 0.181 0.365 0.28 0.541 0.098 0.176 0.186 0.367 0.317 0.508 0.273 0.292 0.589 0.21 0.732-0.185 0.065-0.181 0.091-0.38 0.127-0.571 0.061-0.335 0.159-0.65 0.327-0.943l0.026-1.446c-0.087-0.012-0.176-0.026-0.264-0.05-0.231-0.061-0.383 0.53-0.483 0.765-0.055 0.127-0.081 0.268-0.123 0.402-0.051 0.171-0.529-1.106-0.631-1.401-0.317-0.934-0.629-1.652-0.943-2.587-0.03-0.092-0.064-0.186-0.108-0.27-0.116-0.217-0.303-0.285-0.513-0.195-0.177 0.075-0.275 0.213-0.355 0.41-0.212 0.518-0.448 1.024-0.694 1.524-0.142 0.288-0.331 0.547-0.479 0.831-0.103 0.198-0.24 0.284-0.438 0.271-0.337-0.023-0.676-0.043-1.014-0.075-0.236-0.022-0.474-0.057-0.71-0.092-0.314-0.047-0.63-0.093-0.942-0.15-0.134-0.024-0.271-0.061-0.395-0.121-0.24-0.119-0.429-0.063-0.545 0.194-0.04 0.089-0.065 0.184-0.089 0.28-0.104 0.42-0.343 1.152-0.702 1.364-0.162-0.412-0.318-0.802-0.468-1.196-0.057-0.15-0.123-0.286-0.293-0.278-0.292 0.013-0.586 0.021-0.878 0.061-0.413 0.056-0.826 0.135-1.238 0.21-0.114 0.022-0.227 0.508-0.354 0.547-9e-3 -0.097-0.021-0.829-0.021-0.904-1e-3 -0.471 0.019-0.726-4e-3 -1.195-0.028-0.579-0.084-1.377-0.145-1.955-0.026-0.266-0.172-0.416-0.372-0.448-0.204-0.032-0.402 0.322-0.492 0.565-0.036 0.1-0.061 0.208-0.081 0.315-0.064 0.344-1.034 3.535-1.604 4.72-0.01 0.022-0.042 0.032-0.09 0.067-0.092-0.355-0.184-0.688-0.265-1.025-0.087-0.359-0.152-0.728-0.252-1.083-0.063-0.227-0.15-0.454-0.266-0.656-0.146-0.26-0.396-0.271-0.57-0.033-0.076 0.104-0.678 0.555-0.804 0.876-0.039 0.102-0.062 0.21-0.091 0.315-0.218 0.785-0.434 1.353-0.655 2.137-0.029 0.104-0.032 0.236-0.173 0.302-0.055-0.533-0.116-1.044-0.157-1.558-0.096-1.213-0.306-6.841-0.33-8.443-2e-3 -0.172-0.022-0.352-0.071-0.515-0.061-0.204-0.232-0.305-0.423-0.297-0.188 8e-3 -0.337 0.785-0.401 0.992-0.025 0.083-0.04 0.17-0.054 0.256-0.046 0.28-0.091 0.562-0.132 0.843-0.341 2.305-0.68 2.856-1.02 5.161-0.011 0.072-0.038 0.143-0.057 0.215-0.075-0.584-0.106-1.152-0.15-1.72-0.123-1.606-0.265-2.115-0.372-3.723-0.126-1.883-0.841-8.48-0.864-9.919-3e-3 -0.174-0.018-0.352-0.051-0.522-0.039-0.201-0.169-0.319-0.355-0.348-0.192-0.03-0.37 0.062-0.445 0.254-0.046 0.119-0.074 0.254-0.072 0.382 0.026 1.201-1.943 16.6-2.193 18.511-0.012 0.098-0.133-0.426-0.14-0.454-0.109-0.547-0.213-1.094-0.326-1.639-0.132-0.641-0.264-1.282-0.414-1.918-0.038-0.164-0.136-0.314-0.222-0.46-0.068-0.121-0.181-0.172-0.312-0.13-0.134 0.044-0.485 0.536-0.496 0.684-6e-3 0.079-1.083 7.948-1.377 9.519-4e-3 0.056-0.275-4.088-0.281-4.158-0.052-0.579-0.455-7.852-0.573-11.128-0.04-1.106-0.138-2.21-0.211-3.314-0.066-1.006-0.138-2.012-0.198-3.019-0.063-1.017-0.114-2.035-0.173-3.053-8e-3 -0.12-0.021-0.242-0.051-0.357-0.07-0.285-0.535-0.485-0.769-0.46-0.232 0.024-0.378 0.195-0.418 0.516-0.031 0.239-0.05 0.479-0.07 0.721-0.027 0.35-0.045 0.7-0.075 1.049-0.13 1.429-2.604 20.188-2.62 20.35-0.046-0.047-0.056-0.089-0.06-0.132-0.076-0.796-1.33-21.715-1.432-23.268-0.081-1.226-0.185-2.448-0.276-3.672-0.069-0.929-0.138-1.858-0.209-2.786-6e-3 -0.087-0.014-0.176-0.039-0.258-0.063-0.202-0.225-0.322-0.409-0.32-0.826 0.01-0.692 2.229-0.713 2.705-0.067 1.684-0.144 3.367-0.187 5.051-0.047 1.843-0.033 3.686-0.061 5.529-0.051 3.312-0.118 6.623-0.294 9.931-0.094 1.764-0.218 3.522-0.323 5.285-0.117 1.948-0.255 3.895-0.337 5.844-0.087 2.038-0.107 4.15-0.142 3.892-0.206-1.573-0.175-1.396-0.4-2.964-0.367-2.558-0.546-5.107-0.921-7.661-0.24-1.634-0.477-3.27-0.685-4.909-0.212-1.673-0.391-3.35-0.574-5.027-0.145-1.327-0.277-2.658-0.409-3.987-0.077-0.786-0.136-1.572-0.215-2.357-0.084-0.839-0.177-1.677-0.274-2.514-0.052-0.449-5e-3 -1.279-0.259-1.658-0.083-0.123-0.211-0.207-0.34-0.278-0.144-0.079-0.303-0.148-0.466-0.133-0.246 0.023-0.494 3.507-0.581 4.775-0.091 1.312-0.195 2.623-0.264 3.937-0.081 1.521-0.348 9.26-0.425 11.825-3e-3 0.086-1.548-9.984-1.643-10.499-0.04-0.213-0.479-0.715-0.684-0.778-0.405-0.128-0.58 0.429-0.607 0.72-0.051 0.545-1.293 11.053-1.507 12.549-0.04 0.281-2.407-12.934-2.686-13.532-0.223-0.482-0.774-0.662-0.84 0.033-0.021 0.218-0.041 0.436-0.071 0.653-0.134 0.965-0.906 5.84-1.119 7.293-0.11 0.757-0.204 1.079-0.312 1.836-0.015 0.1-0.068 0.194-0.103 0.291-0.889 0-1.31-0.016-2.165 3e-3 -0.646 0.014-1.923 5e-3 -3.382-0.015l0.114 1.198z" fill="#fff"/>
	<path d="m36.062 50.81h-7e-3c-1.003 0-1.952-0.53-2.478-1.384l-9.278-15.056c-0.502-0.814-0.522-1.839-0.057-2.674 0.466-0.834 1.35-1.353 2.306-1.353l3.538-2e-3c1.786 0 3.238-1.453 3.238-3.237v-8.853c0-1.785-1.452-3.237-3.237-3.237h-6.327c-1.604 0-2.908-1.305-2.908-2.909 0-1.611 1.304-2.916 2.908-2.916h6.327c4.998 0 9.062 4.065 9.062 9.062v8.853c0 4.302-3.014 7.914-7.04 8.836l6.431 10.433c0.552 0.896 0.577 2.024 0.063 2.945-0.513 0.92-1.487 1.492-2.541 1.492z" fill="#231F20"/>
</svg>