<?xml version="1.0" standalone="no"?>
<!DOCTYPE svg PUBLIC "-//W3C//DTD SVG 20010904//EN"
 "http://www.w3.org/TR/2001/REC-SVG-20010904/DTD/svg10.dtd">
<svg version="1.0" xmlns="http://www.w3.org/2000/svg"
 width="700.000000pt" height="700.000000pt" viewBox="0 0 700.000000 700.000000"
 preserveAspectRatio="xMidYMid meet">
<metadata>
Created by potrace 1.11, written by Peter Selinger 2001-2013
</metadata>
<g transform="translate(0.000000,700.000000) scale(0.100000,-0.100000)"
fill="#000000" stroke="none">
<path d="M2703 5920 c-95 -19 -186 -88 -229 -173 -90 -176 -21 -382 156 -466
l55 -26 450 -5 c437 -6 452 -6 507 -28 101 -41 179 -118 220 -220 22 -56 23
-63 26 -601 2 -330 -1 -568 -7 -607 -26 -171 -142 -293 -306 -323 -32 -6 -163
-11 -290 -11 -290 0 -312 -5 -400 -93 -77 -77 -100 -136 -93 -236 3 -36 13
-82 23 -101 20 -40 204 -341 580 -950 144 -234 322 -524 396 -645 74 -121 153
-239 177 -263 65 -66 139 -96 237 -97 71 0 88 4 147 33 122 60 192 169 193
302 0 49 -6 90 -17 117 -15 35 -426 709 -705 1156 -41 66 -73 120 -71 122 2 1
29 10 62 19 139 41 302 135 416 242 124 117 212 252 275 418 58 154 58 151 62
806 5 648 1 726 -43 878 -50 172 -135 314 -268 448 -171 170 -372 270 -610
303 -90 13 -879 13 -943 1z"/>
</g>
</svg>
